<?xml version="1.0" encoding="UTF-8" standalone="no"?>
<svg width="950" height="950" viewBox="0 0 950 950" fill="none" version="1.1" id="svg72"
   xmlns="http://www.w3.org/2000/svg" xmlns:svg="http://www.w3.org/2000/svg">
   <g id="g865" transform="translate(14.941645,55.508596)">
      <path
         d="m 876.75,475.25 -197.5,342 -197.143,-115 -129.428,-75.5 -129.429,75.5 -201.5,-341 198.261,-115 128.869,-74.75 3.37,-154.75 h 394 v 229.5 152.5 z"
         fill="#f7f7f7" id="path39" />
      <path
         d="m 876.75,475.25 -130.5,76 v -152.5 m 130.5,76.5 -197.5,342 -197.143,-115 m 394.643,-227 -130.5,-76.5 m -523,303.5 v -151 l 129.429,75.5 m -129.429,75.5 -201.5,-341 198.261,-115 m 3.239,456 129.429,-75.5 m -0.429,-610 125.5,80 -128.87,74.75 m 3.37,-154.75 h 394 v 229.5 m -394,-229.5 -3.37,154.75 M 746.25,246.25 615.75,167.75 484,245 m 262.25,1.25 -130.5,76 m 130.5,-76 v 152.5 m -394,-76.5 -132.239,-76 m 132.239,76 L 484,245 m -131.75,77.25 -1.191,153 m -131.048,-229 v 153 l 131.048,76 M 220.011,246.25 348.88,171.5 m 133.227,530.75 133.643,-75 v -152.5 m -133.643,227.5 v -151 m 0,151 -129.428,-75.5 M 615.75,322.25 v 152.5 m 0,-152.5 L 484,245 m -1.893,306.25 133.643,-76.5 m -133.643,76.5 -131.048,-76 m 264.691,-0.5 -133.643,-75.5 m 0,0 L 484,245 m -1.893,154.25 -131.048,76"
         stroke="#000000" stroke-width="31" id="path41" />
      <path
         d="M 352.239,16 477.739,96 348.87,170.75 220,245.5 l 132.239,76 131.75,-77.25 131.75,-77.25 130.5,78.5 V 16 Z"
         fill="url(#paint0_linear_7_33)" id="path43" style="fill:url(#paint0_linear_7_33)" />
      <path
         d="M 352.239,16 477.739,96 348.87,170.75 220,245.5 l 132.239,76 131.75,-77.25 131.75,-77.25 130.5,78.5 V 16 Z m 0,0 v 30"
         stroke="#000000" stroke-width="31" id="path45" />
      <path
         d="M 877,475.5 746.565,551 V 395.973 l -0.301,-148.979 -131.938,76.522 1.026,152.724 1.025,152.724 L 483.144,702.73 679,816.5 Z"
         fill="url(#paint1_linear_7_33)" id="path47" style="fill:url(#paint1_linear_7_33)" />
      <path
         d="M 877,475.5 746.565,551 V 395.973 l -0.301,-148.979 -131.938,76.522 1.026,152.724 1.025,152.724 L 483.144,702.73 679,816.5 Z m 0,0 -24.084,-14.234"
         stroke="#000000" stroke-width="31" id="path49" />
      <path
         d="m 223,701.5 v -150 L 353.247,629.026 482.116,701.5 V 550.733 L 349.34,475.259 216.565,399.786 219.5,245.5 22.8427,360.25 Z"
         fill="url(#paint2_linear_7_33)" id="path51" style="fill:url(#paint2_linear_7_33)" />
      <path
         d="m 223,701.5 v -150 L 353.247,629.026 482.116,701.5 V 550.733 L 349.34,475.259 216.565,399.786 219.5,245.5 22.8427,360.25 Z m 0,0 22,-12"
         stroke="#000000" stroke-width="31" id="path53" />
   </g>
   <defs id="defs70">
      <linearGradient id="paint0_linear_7_33" x1="689.5" y1="-89.5" x2="464.5" y2="232" gradientUnits="userSpaceOnUse">
         <stop stop-color="#C0C0C0" id="stop55" />
         <stop offset="1" stop-color="white" id="stop57" />
      </linearGradient>
      <linearGradient id="paint1_linear_7_33" x1="801.63202" y1="821.09302" x2="635.70502" y2="465.487"
         gradientUnits="userSpaceOnUse">
         <stop stop-color="#C0C0C0" id="stop60" />
         <stop offset="1" stop-color="white" id="stop62" />
      </linearGradient>
      <linearGradient id="paint2_linear_7_33" x1="-42.450901" y1="464.15701" x2="348.47601" y2="498.263"
         gradientUnits="userSpaceOnUse">
         <stop stop-color="#C0C0C0" id="stop65" />
         <stop offset="1" stop-color="white" id="stop67" />
      </linearGradient>
   </defs>
</svg>