<svg width="31" height="26" viewBox="0 0 31 26" fill="none" xmlns="http://www.w3.org/2000/svg">
<path fill-rule="evenodd" clip-rule="evenodd" d="M15.5002 24.2757C15.499 24.2761 15.4978 24.2764 15.4966 24.2767C14.5262 24.5458 13.5041 24.6895 12.4488 24.6895C6.14281 24.6895 1.02307 19.3407 1.02307 13C1.02307 6.65934 6.14281 1.31055 12.4488 1.31055C13.5106 1.31055 14.5388 1.45606 15.5145 1.72834L15.5992 1.69718L15.6045 1.69574C16.4178 1.47839 17.2665 1.34886 18.1401 1.31784C18.2766 1.31299 18.4136 1.31055 18.5512 1.31055C24.8572 1.31055 29.9769 6.65934 29.9769 13C29.9769 19.3407 24.8572 24.6895 18.5512 24.6895C17.4947 24.6895 16.4716 24.5454 15.5002 24.2757ZM1.27286 13C1.27286 6.81162 6.27222 1.57045 12.4488 1.57045C18.6254 1.57045 23.6247 6.81162 23.6247 13H23.6241C23.6241 15.8052 21.3572 18.3037 18.5512 18.3037C17.501 18.3037 16.5262 17.984 15.7176 17.4368C16.9664 16.4593 17.7714 14.7165 17.7714 13C17.7714 10.0425 15.3841 7.43636 12.4488 7.43636C9.51345 7.43636 7.12615 10.0425 7.12615 13H7.12551C7.12551 18.1021 10.4404 22.6383 15.0209 24.1312C14.1952 24.3263 13.3341 24.4296 12.4488 24.4296C6.27222 24.4296 1.27286 19.1884 1.27286 13ZM15.5142 24.0107H15.5087C15.5046 24.0118 15.504 24.0054 15.4999 24.0066C10.8085 22.6739 7.3753 18.1283 7.3753 13H7.37594C7.37594 10.1948 9.64286 7.69626 12.4488 7.69626C13.4991 7.69626 14.4738 8.01597 15.2824 8.56317C14.0336 9.54074 13.2286 11.2835 13.2286 13C13.2286 15.9575 15.6159 18.5636 18.5512 18.5636C21.4866 18.5636 23.8739 15.9575 23.8739 13H23.8745C23.8745 7.89794 20.5596 3.36174 15.9792 1.86882C16.6791 1.70341 17.4046 1.60401 18.1487 1.57759C18.2823 1.57284 18.4165 1.57045 18.5512 1.57045C24.7278 1.57045 29.7272 6.81162 29.7272 13C29.7272 19.1884 24.7278 24.4296 18.5512 24.4296C17.4984 24.4296 16.4797 24.2836 15.5142 24.0107ZM15.5001 8.71895C14.271 9.64831 13.4784 11.3403 13.4784 13C13.4784 14.6592 14.2714 16.3519 15.4999 17.2811C16.729 16.3517 17.5216 14.6597 17.5216 13C17.5216 11.3408 16.7286 9.64813 15.5001 8.71895Z" fill="black" stroke="white" stroke-width="2"/>
</svg>
