<?xml version="1.0" standalone="no"?>
<!DOCTYPE svg PUBLIC "-//W3C//DTD SVG 20010904//EN"
 "http://www.w3.org/TR/2001/REC-SVG-20010904/DTD/svg10.dtd">
<svg version="1.0" xmlns="http://www.w3.org/2000/svg"
 width="176.000000pt" height="176.000000pt" viewBox="0 0 176.000000 176.000000"
 preserveAspectRatio="xMidYMid meet">

<g transform="translate(0.000000,176.000000) scale(0.100000,-0.100000)"
fill="#000000" stroke="none">
<path d="M665 1700 c-145 -39 -220 -75 -334 -162 -129 -99 -185 -206 -185
-353 0 -79 4 -98 31 -155 36 -80 81 -133 148 -176 96 -61 121 -64 513 -64 237
0 367 -4 393 -11 156 -47 200 -257 76 -366 -101 -89 -255 -64 -323 53 -22 37
-28 63 -32 125 l-5 79 -426 -4 c-515 -4 -471 -2 -471 -22 0 -31 88 -203 136
-266 122 -162 305 -276 508 -318 117 -24 272 -20 375 10 79 22 219 88 286 134
67 46 142 132 177 203 31 63 33 74 33 168 0 93 -2 105 -33 167 -46 93 -135
175 -227 208 -70 25 -73 25 -438 27 -269 1 -377 4 -400 14 -66 26 -120 97
-133 176 -9 58 12 119 58 169 95 104 258 88 333 -31 25 -41 31 -61 34 -127 l3
-78 450 0 450 0 -7 33 c-12 53 -71 174 -119 241 -55 77 -165 181 -239 224 -75
45 -178 86 -264 106 -100 22 -277 21 -368 -4z m335 -180 c66 -15 148 -49 208
-88 61 -38 142 -113 142 -130 0 -9 -55 -12 -205 -12 l-205 0 -30 64 c-17 35
-48 84 -70 109 -22 25 -40 50 -40 56 0 14 138 14 200 1z m-206 -1096 c25 -54
82 -134 114 -161 8 -6 11 -17 7 -24 -6 -8 -32 -10 -94 -5 -182 13 -311 71
-424 191 -33 34 -35 40 -20 46 10 4 102 7 205 8 l186 2 26 -57z"/>
</g>
</svg>
